<svg xmlns="http://www.w3.org/2000/svg" width="98" height="139" fill="none" viewBox="0 0 98 139"><g fill="#fff" clip-path="url(#clip0_1_959)"><path d="M49.0251 0C22.001 0 0 21.9632 0 48.9408V139.05H98V48.9408C98 21.9632 76.0492 0 49.0251 0ZM1.8083 137.195V48.9408C1.8083 22.9661 23.0056 1.80519 49.0251 1.80519C75.0446 1.80519 96.2419 22.9661 96.2419 48.9408V137.245H1.8083V137.195Z"/><path d="M81.323 51.298H56.258L80.62 44.779C81.123 44.629 81.374 44.177 81.273 43.676 81.123 43.174 80.67 42.924 80.168 43.024L55.806 49.543 77.908 36.806C78.109 36.706 78.259 36.505 78.31 36.254 78.36 36.004 78.36 35.803 78.209 35.552 78.058 35.302 77.908 35.201 77.657 35.151 77.405 35.101 77.205 35.101 76.953 35.252L54.802 48.038 72.985 29.886C73.136 29.736 73.236 29.485 73.236 29.234 73.236 28.984 73.136 28.783 72.985 28.582 72.835 28.432 72.583 28.332 72.332 28.332 72.081 28.332 71.88 28.432 71.679 28.582L53.596 46.634 66.505 24.32C66.757 23.869 66.606 23.317 66.154 23.066 65.953 22.966 65.702 22.916 65.451 22.966 65.199 23.016 64.999 23.167 64.898 23.367L51.788 45.982 58.619 20.559C58.77 20.058 58.469 19.607 57.966 19.456 57.464 19.306 57.012 19.607 56.861 20.108L50.18 44.929V19.205C50.18 18.704 49.779 18.303 49.276 18.303 48.774 18.303 48.372 18.704 48.372 19.205V44.98L41.792 20.008C41.742 19.757 41.591 19.556 41.39 19.456 41.189 19.356 40.938 19.306 40.687 19.356 40.185 19.506 39.933 19.958 40.034 20.459L46.915 46.083 33.655 23.066C33.403 22.615 32.851 22.465 32.399 22.715 32.198 22.816 32.047 23.016 31.997 23.267 31.947 23.518 31.947 23.718 32.097 23.969L45.157 46.634 26.673 28.181C26.321 27.83 25.768 27.83 25.417 28.181 25.216 28.332 25.115 28.582 25.115 28.833 25.115 29.084 25.216 29.284 25.367 29.485L44.002 48.089 21.248 34.951C20.796 34.7 20.243 34.85 19.992 35.302 19.741 35.753 19.891 36.305 20.343 36.555L42.997 49.643 17.882 42.823C17.631 42.773 17.43 42.773 17.179 42.924 16.978 43.024 16.827 43.225 16.777 43.475 16.626 43.977 16.928 44.428 17.43 44.578L42.596 51.298H16.677C16.174 51.298 15.772 51.699 15.772 52.2 15.772 52.702 16.174 53.103 16.677 53.103H81.273C81.776 53.103 82.177 52.702 82.177 52.2 82.228 51.699 81.826 51.298 81.323 51.298ZM31.846 73.211C31.746 72.76 31.595 72.258 31.344 71.807 31.093 71.356 30.791 70.904 30.339 70.553 29.887 70.202 29.335 69.901 28.682 69.701 28.029 69.5 27.225 69.4 26.271 69.4 25.316 69.4 24.513 69.5 23.86 69.701 23.207 69.901 22.654 70.202 22.202 70.603 21.75 70.954 21.398 71.406 21.147 71.857 20.896 72.308 20.745 72.76 20.645 73.261 20.544 73.712 20.494 74.214 20.444 74.665 20.444 75.116 20.394 75.467 20.394 75.818V115.533C20.394 116.084 20.444 116.686 20.494 117.338 20.544 118.09 20.796 118.792 21.147 119.444 21.499 120.146 22.102 120.748 22.905 121.199 23.709 121.65 24.814 121.901 26.271 121.901 27.677 121.901 28.782 121.65 29.586 121.199 30.39 120.748 30.942 120.146 31.344 119.444 31.696 118.792 31.897 118.04 31.947 117.338 31.997 116.636 32.047 116.034 32.047 115.533V95.926H25.367V98.283H29.536V115.432C29.536 115.834 29.536 116.335 29.485 116.836 29.485 117.288 29.335 117.739 29.134 118.19 28.933 118.591 28.632 118.942 28.23 119.193 27.828 119.494 27.175 119.594 26.321 119.594H26.22C25.367 119.594 24.714 119.444 24.261 119.193 23.809 118.892 23.508 118.591 23.307 118.19 23.106 117.789 23.006 117.338 22.955 116.836 22.905 116.335 22.905 115.834 22.905 115.432V75.969C22.905 75.568 22.905 75.116 22.955 74.615 23.006 74.164 23.106 73.712 23.307 73.261 23.508 72.86 23.809 72.509 24.261 72.258 24.714 72.007 25.367 71.857 26.22 71.857H26.271C27.125 71.857 27.778 72.007 28.23 72.258 28.682 72.559 28.983 72.86 29.184 73.261 29.385 73.662 29.485 74.114 29.536 74.615 29.586 75.116 29.586 75.568 29.586 76.019V81.786H32.097V75.919C32.097 75.568 32.097 75.167 32.047 74.765 32.047 74.164 31.947 73.712 31.846 73.211ZM55.254 73.261C55.153 72.76 55.003 72.308 54.751 71.857 54.5 71.406 54.199 70.954 53.747 70.603 53.295 70.252 52.742 69.952 52.089 69.701 51.436 69.5 50.633 69.4 49.678 69.4 48.724 69.4 47.92 69.5 47.267 69.701 46.614 69.901 46.062 70.202 45.609 70.603 45.157 70.954 44.806 71.406 44.555 71.857 44.303 72.308 44.153 72.76 44.052 73.261 43.952 73.712 43.902 74.214 43.851 74.665 43.851 75.066 43.801 75.467 43.801 75.818V115.533C43.801 115.884 43.801 116.285 43.851 116.686 43.851 117.137 43.952 117.589 44.052 118.04 44.153 118.491 44.354 118.993 44.555 119.444 44.806 119.945 45.157 120.347 45.609 120.698 46.062 121.049 46.614 121.349 47.267 121.6 47.92 121.801 48.724 121.951 49.678 121.951 51.085 121.951 52.19 121.7 52.993 121.249 53.797 120.798 54.35 120.196 54.751 119.494 55.103 118.842 55.304 118.09 55.354 117.388 55.404 116.686 55.455 116.084 55.455 115.583V109.716H52.943V115.483C52.943 115.884 52.943 116.385 52.893 116.887 52.893 117.338 52.742 117.789 52.541 118.24 52.34 118.642 52.039 118.993 51.637 119.243 51.185 119.544 50.532 119.645 49.678 119.645 48.824 119.645 48.171 119.494 47.719 119.243 47.267 118.942 46.966 118.591 46.765 118.19 46.564 117.789 46.413 117.338 46.413 116.836 46.363 116.335 46.363 115.884 46.363 115.432V75.969C46.363 75.568 46.363 75.116 46.413 74.615 46.463 74.164 46.564 73.712 46.765 73.261 46.966 72.86 47.267 72.509 47.719 72.208 48.171 71.907 48.824 71.757 49.628 71.757H49.678C50.532 71.757 51.185 71.907 51.637 72.158 52.089 72.459 52.391 72.76 52.541 73.161 52.742 73.562 52.843 74.013 52.893 74.515 52.943 75.016 52.943 75.467 52.943 75.919V81.685H55.455V75.818C55.455 75.467 55.455 75.066 55.404 74.665 55.404 74.214 55.354 73.763 55.254 73.261ZM77.355 73.261C77.255 72.81 77.104 72.308 76.853 71.857 76.602 71.406 76.3 70.954 75.848 70.603 75.396 70.252 74.844 69.952 74.191 69.701 73.538 69.5 72.734 69.4 71.78 69.4 70.825 69.4 70.022 69.5 69.369 69.701 68.716 69.901 68.163 70.202 67.711 70.603 67.259 70.954 66.907 71.406 66.656 71.857 66.405 72.308 66.254 72.76 66.154 73.261 66.053 73.712 66.003 74.214 65.953 74.665 65.953 75.116 65.903 75.467 65.903 75.818V115.533C65.903 115.884 65.903 116.235 65.953 116.686 65.953 117.137 66.053 117.589 66.154 118.04 66.254 118.491 66.455 118.993 66.656 119.444 66.907 119.895 67.259 120.347 67.711 120.698 68.163 121.049 68.716 121.349 69.369 121.6 70.022 121.801 70.825 121.951 71.78 121.951 73.186 121.951 74.291 121.7 75.095 121.249 75.899 120.798 76.451 120.196 76.853 119.494 77.205 118.842 77.405 118.09 77.456 117.388 77.506 116.686 77.556 116.084 77.556 115.583V109.716H75.045V115.483C75.045 115.884 75.045 116.385 74.994 116.887 74.994 117.338 74.844 117.789 74.643 118.24 74.442 118.642 74.14 118.993 73.739 119.243 73.287 119.544 72.634 119.645 71.78 119.645 70.926 119.645 70.273 119.494 69.821 119.243 69.369 118.942 69.067 118.591 68.866 118.19 68.665 117.789 68.515 117.338 68.515 116.836 68.464 116.335 68.464 115.834 68.464 115.432V75.969C68.464 75.568 68.464 75.116 68.515 74.615 68.565 74.164 68.665 73.712 68.866 73.261 69.067 72.86 69.369 72.509 69.821 72.208 70.273 71.907 70.926 71.757 71.729 71.757H71.78C72.634 71.757 73.287 71.907 73.739 72.158 74.191 72.459 74.492 72.76 74.643 73.161 74.844 73.562 74.944 74.013 74.994 74.515 75.045 75.016 75.045 75.467 75.045 75.919V81.685H77.556V75.818C77.556 75.467 77.556 75.116 77.506 74.665 77.506 74.214 77.456 73.712 77.355 73.261Z"/></g><defs><clipPath id="clip0_1_959"><path fill="#fff" d="M0 0H98V139H0z"/></clipPath></defs></svg>