<svg xmlns="http://www.w3.org/2000/svg" width="236" height="34" fill="none" viewBox="0 0 236 34"><path fill="#fff" d="M8.172 1.7C7.872 1.233 7.445.808 6.846.468 6.247.17 5.434 0 4.407 0 3.423 0 2.61.17 2.011.51 1.412.808.984 1.233.685 1.7.385 2.168.171 2.678.086 3.23.043 3.74 0 4.208 0 4.633V29.368C0 29.793.043 30.26.086 30.77.171 31.323.342 31.833.642 32.3.941 32.768 1.412 33.193 1.968 33.533 2.61 33.83 3.423 34 4.45 34 5.476 34 6.289 33.83 6.846 33.533 7.445 33.193 7.872 32.81 8.172 32.3 8.471 31.833 8.643 31.323 8.685 30.77 8.771 30.26 8.771 29.793 8.771 29.368V17.68H4.364V19.975H6.503V29.198C6.503 29.453 6.503 29.75 6.46 30.048 6.46 30.345 6.375 30.643 6.247 30.898 6.118 31.153 5.947 31.365 5.648 31.535 5.391 31.705 4.963 31.79 4.407 31.79 3.851 31.79 3.466 31.705 3.166 31.535 2.867 31.365 2.653 31.153 2.524 30.898 2.396 30.643 2.31 30.345 2.31 30.048 2.31 29.75 2.268 29.453 2.268 29.198V4.803C2.268 4.548 2.268 4.25 2.31 3.953 2.31 3.655 2.396 3.358 2.524 3.103 2.653 2.848 2.867 2.635 3.166 2.465 3.466 2.295 3.851 2.21 4.407 2.21 4.92 2.21 5.348 2.295 5.648 2.465 5.904 2.635 6.118 2.848 6.247 3.103 6.375 3.358 6.46 3.655 6.46 3.953 6.46 4.293 6.503 4.548 6.503 4.803V9.01H8.814V4.633C8.814 4.208 8.771 3.74 8.728 3.23 8.643 2.678 8.429 2.168 8.172 1.7ZM21.692.255H18.526L14.804 33.533 14.761 33.745H17.114L17.97 24.523H22.248L23.104 33.575V33.745H25.414L21.692.425V.255ZM20.109 3.953 21.991 22.313H18.184L20.109 3.953ZM39.234 18.488C39.661 18.148 40.004 17.68 40.218 17.128 40.474 16.533 40.603 15.81 40.603 14.96V4.633C40.603 3.995 40.517 3.4 40.346 2.89 40.175 2.338 39.918 1.87 39.533 1.488 39.148 1.105 38.677.807 38.121.595 37.565.382 36.838.297 36.067.297H31.789V33.745H34.099V19.38H35.982C36.239 19.38 36.453 19.38 36.666 19.338 36.838 19.338 36.966 19.295 37.137 19.295L38.763 33.575 38.806 33.745H41.159L39.319 18.87 39.234 18.488ZM38.292 5.015V14.62C38.292 15.13 38.25 15.555 38.164 15.938 38.078 16.278 37.95 16.533 37.779 16.745 37.608 16.958 37.351 17.085 37.052 17.17 36.752 17.255 36.367 17.298 35.896 17.298H34.014V2.38H36.067C36.88 2.38 37.479 2.593 37.779 2.975 38.121 3.358 38.292 4.037 38.292 5.015ZM55.363 1.615C55.021 1.19 54.508.85 53.909.595 53.31.34 52.497.255 51.556.255H47.448V33.703H51.556C52.497 33.703 53.31 33.575 53.909 33.363 54.55 33.15 55.021 32.81 55.363 32.385 55.706 31.96 55.962 31.45 56.091 30.855 56.219 30.26 56.262 29.623 56.262 28.9V5.1C56.262 4.378 56.219 3.74 56.091 3.145 55.962 2.593 55.706 2.04 55.363 1.615ZM49.716 2.38H51.47C51.898 2.38 52.283 2.423 52.625 2.465 52.925 2.508 53.181 2.635 53.352 2.848 53.566 3.018 53.695 3.315 53.78 3.655 53.866 3.995 53.909 4.505 53.909 5.1V28.9C53.909 29.495 53.866 30.005 53.738 30.345 53.652 30.685 53.481 30.983 53.31 31.153 53.139 31.323 52.882 31.45 52.582 31.535 52.283 31.62 51.898 31.62 51.427 31.62H49.673V2.38H49.716ZM63.492 33.745H71.108V31.663H65.803V17.68H70.21V15.513H65.803V2.423H71.108V.255H63.492V33.745ZM83.73 25.628 79.965.425 79.922.255H76.97V33.745H79.152L79.066 6.418 82.831 33.575 82.874 33.745H85.826V.255H83.687L83.73 25.628ZM110.983 2.72C110.898 2.38 110.727 2.04 110.555 1.7 110.384 1.36 110.085 1.063 109.785.808 109.443.553 109.058.34 108.587.213 108.117.043 107.518 0 106.876 0 105.849 0 105.036.17 104.48.468 103.881.808 103.453 1.19 103.111 1.7 102.811 2.168 102.64 2.678 102.555 3.23 102.469 3.74 102.426 4.208 102.426 4.633V29.368C102.426 29.793 102.469 30.26 102.555 30.77 102.64 31.323 102.811 31.833 103.111 32.3 103.41 32.768 103.881 33.193 104.437 33.533 105.036 33.873 105.849 34.043 106.876 34.043 107.903 34.043 108.716 33.873 109.272 33.533 109.871 33.193 110.299 32.81 110.598 32.3 110.898 31.833 111.069 31.323 111.112 30.77 111.197 30.26 111.197 29.793 111.197 29.368V24.99H108.887V29.198C108.887 29.453 108.887 29.75 108.887 30.048 108.887 30.345 108.801 30.643 108.673 30.898 108.545 31.153 108.373 31.365 108.074 31.535 107.817 31.705 107.389 31.79 106.876 31.79H106.833C106.277 31.79 105.892 31.705 105.592 31.535 105.293 31.365 105.079 31.153 104.951 30.898 104.822 30.643 104.737 30.345 104.737 30.048 104.737 29.75 104.694 29.453 104.694 29.198V4.803C104.694 4.548 104.694 4.25 104.737 3.953 104.737 3.655 104.822 3.358 104.951 3.103 105.079 2.848 105.293 2.635 105.592 2.465 105.892 2.295 106.277 2.21 106.833 2.21 107.389 2.21 107.774 2.295 108.074 2.465 108.331 2.635 108.545 2.848 108.673 3.103 108.801 3.358 108.887 3.655 108.887 3.953 108.887 4.293 108.93 4.59 108.93 4.803V9.01H111.24V4.633C111.24 4.378 111.24 4.037 111.197 3.698 111.154 3.4 111.069 3.06 110.983 2.72ZM118.941.255H116.631V33.703H118.941V.255ZM123.049 2.38H126.343V33.745H128.653V2.38H131.905V.255H123.049V2.38ZM140.162 15.47 137.809.425V.255H135.413L139.007 19.72V33.745H141.318V19.763L144.869.467 144.912.255H142.516L140.162 15.47ZM167.16 2.72C167.074 2.38 166.903 2.04 166.732 1.7 166.561 1.36 166.261 1.063 165.962.808 165.619.553 165.234.34 164.764.213 164.293.043 163.694 0 163.052 0 162.025 0 161.212.17 160.656.468 160.057.808 159.629 1.19 159.287 1.7 158.988 2.168 158.817 2.678 158.731 3.23 158.645 3.74 158.603 4.208 158.603 4.633V29.368C158.603 29.793 158.645 30.26 158.731 30.77 158.817 31.323 158.988 31.833 159.287 32.3 159.587 32.768 160.057 33.193 160.613 33.533 161.212 33.873 162.025 34.043 163.052 34.043 164.079 34.043 164.892 33.873 165.448 33.533 166.047 33.193 166.475 32.81 166.774 32.3 167.074 31.833 167.245 31.323 167.288 30.77 167.373 30.26 167.373 29.793 167.373 29.368V24.99H165.063V29.198C165.063 29.453 165.063 29.75 165.063 30.048 165.063 30.345 164.978 30.643 164.849 30.898 164.721 31.153 164.55 31.365 164.25 31.535 163.993 31.705 163.566 31.79 163.052 31.79H163.009C162.496 31.79 162.068 31.705 161.769 31.535 161.469 31.365 161.255 31.153 161.127 30.898 160.999 30.643 160.913 30.345 160.913 30.048 160.913 29.708 160.87 29.453 160.87 29.198V4.803C160.87 4.548 160.87 4.293 160.913 3.953 160.913 3.655 160.999 3.358 161.127 3.103 161.255 2.848 161.469 2.635 161.769 2.465 162.068 2.295 162.453 2.21 163.009 2.21 163.566 2.21 163.951 2.295 164.25 2.465 164.507 2.635 164.721 2.848 164.849 3.103 164.978 3.358 165.063 3.655 165.063 3.953 165.063 4.293 165.106 4.59 165.106 4.803V9.01H167.416V4.633C167.416 4.378 167.416 4.037 167.373 3.698 167.288 3.4 167.245 3.06 167.16 2.72ZM173.192 33.745H180.808V31.663H175.503V17.68H179.909V15.513H175.503V2.423H180.808V.255H173.192V33.745ZM193.001 27.158 189.236.425 189.194.255H186.284V33.745H188.424L188.381 6.8 192.146 33.575V33.745H195.098V.255H192.959L193.001 27.158ZM200.061 2.38H203.313V33.745H205.623V2.38H208.875V.255H200.061V2.38ZM213.88 33.745H221.496V31.663H216.148V17.68H220.597V15.513H216.148V2.423H221.496V.255H213.88V33.745ZM234.118 18.87 234.032 18.488C234.46 18.148 234.802 17.68 235.016 17.128 235.273 16.533 235.401 15.81 235.401 14.96V4.633C235.401 3.995 235.315 3.4 235.144 2.89 234.973 2.338 234.716 1.87 234.331 1.488 233.946 1.105 233.476.807 232.92.595 232.363.382 231.636.297 230.866.297H226.587V33.745H228.898V19.38H230.78C231.037 19.38 231.251 19.38 231.465 19.338 231.636 19.338 231.764 19.295 231.935 19.295L233.604 33.575 233.647 33.745H236L234.118 18.87ZM232.62 2.975C232.962 3.358 233.091 4.08 233.091 5.015V14.62C233.091 15.13 233.048 15.555 232.962 15.938 232.877 16.278 232.748 16.533 232.577 16.745 232.406 16.958 232.149 17.085 231.85 17.17 231.55 17.255 231.165 17.298 230.695 17.298H228.812V2.38H230.866C231.722 2.38 232.321 2.593 232.62 2.975Z"/></svg>